<svg width="236" height="24" viewBox="0 0 236 24" fill="none" xmlns="http://www.w3.org/2000/svg">
<path d="M23 2.99998C22.0424 3.67546 20.9821 4.19209 19.86 4.52999C19.2577 3.8375 18.4573 3.34668 17.567 3.12391C16.6767 2.90115 15.7395 2.95718 14.8821 3.28444C14.0247 3.6117 13.2884 4.19439 12.773 4.9537C12.2575 5.71302 11.9877 6.61232 12 7.52998V8.52998C10.2426 8.57555 8.50127 8.1858 6.93101 7.39543C5.36074 6.60506 4.01032 5.43862 3 3.99998C3 3.99998 -1 13 8 17C5.94053 18.398 3.48716 19.0989 1 19C10 24 21 19 21 7.49998C20.9991 7.22144 20.9723 6.94358 20.92 6.66999C21.9406 5.66348 22.6608 4.3927 23 2.99998V2.99998Z" stroke="#60EFFF" stroke-width="2" stroke-linecap="round" stroke-linejoin="round"/>
<path d="M69 11V7M74 2H56V18H61V22L65 18H70L74 14V2ZM64 11V7V11Z" stroke="#60EFFF" stroke-width="2" stroke-linecap="round" stroke-linejoin="round"/>
<path d="M123 2H113C110.239 2 108 4.23858 108 7V17C108 19.7614 110.239 22 113 22H123C125.761 22 128 19.7614 128 17V7C128 4.23858 125.761 2 123 2Z" stroke="#60EFFF" stroke-width="2" stroke-linecap="round" stroke-linejoin="round"/>
<path d="M122 11.37C122.123 12.2022 121.981 13.0522 121.594 13.799C121.206 14.5458 120.593 15.1514 119.842 15.5297C119.09 15.9079 118.238 16.0396 117.408 15.9059C116.577 15.7723 115.81 15.3801 115.215 14.7852C114.62 14.1902 114.228 13.4229 114.094 12.5922C113.96 11.7615 114.092 10.9099 114.47 10.1584C114.849 9.40685 115.454 8.79374 116.201 8.40624C116.948 8.01874 117.798 7.87658 118.63 8C119.479 8.12588 120.265 8.52146 120.872 9.1283C121.479 9.73515 121.874 10.5211 122 11.37Z" stroke="#60EFFF" stroke-width="2" stroke-linecap="round" stroke-linejoin="round"/>
<path d="M123.5 6.5H123.51" stroke="#60EFFF" stroke-width="2" stroke-linecap="round" stroke-linejoin="round"/>
<path d="M175 8C176.591 8 178.117 8.63214 179.243 9.75736C180.368 10.8826 181 12.4087 181 14V21H177V14C177 13.4696 176.789 12.9609 176.414 12.5858C176.039 12.2107 175.53 12 175 12C174.47 12 173.961 12.2107 173.586 12.5858C173.211 12.9609 173 13.4696 173 14V21H169V14C169 12.4087 169.632 10.8826 170.757 9.75736C171.883 8.63214 173.409 8 175 8V8Z" stroke="#60EFFF" stroke-width="2" stroke-linecap="round" stroke-linejoin="round"/>
<path d="M165 9H161V21H165V9Z" stroke="#60EFFF" stroke-width="2" stroke-linecap="round" stroke-linejoin="round"/>
<path d="M163 6C164.105 6 165 5.10457 165 4C165 2.89543 164.105 2 163 2C161.895 2 161 2.89543 161 4C161 5.10457 161.895 6 163 6Z" stroke="#60EFFF" stroke-width="2" stroke-linecap="round" stroke-linejoin="round"/>
<g clip-path="url(#clip0_120_33)">
<path d="M228 22V18.13C228.038 17.6532 227.973 17.1738 227.811 16.7238C227.649 16.2738 227.393 15.8634 227.06 15.52C230.2 15.17 233.5 13.98 233.5 8.52C233.5 7.12383 232.963 5.7812 232 4.77C232.456 3.54851 232.424 2.19835 231.91 0.999999C231.91 0.999999 230.73 0.649999 228 2.48C225.708 1.85882 223.292 1.85882 221 2.48C218.27 0.649999 217.09 0.999999 217.09 0.999999C216.576 2.19835 216.544 3.54851 217 4.77C216.03 5.7887 215.493 7.14346 215.5 8.55C215.5 13.97 218.8 15.16 221.94 15.55C221.611 15.89 221.357 16.2954 221.195 16.7399C221.033 17.1844 220.967 17.6581 221 18.13V22M221 19C216 20.5 216 16.5 214 16L221 19Z" stroke="#60EFFF" stroke-width="2" stroke-linecap="round" stroke-linejoin="round"/>
</g>
<defs>
<clipPath id="clip0_120_33">
<rect width="24" height="24" fill="white" transform="translate(212)"/>
</clipPath>
</defs>
</svg>
